<svg width="63" height="27" viewBox="0 0 63 27" fill="none" xmlns="http://www.w3.org/2000/svg">
<g opacity="0.99678">
<path d="M61.2172 18.2911V17.1275L59.9416 15.517C59.9416 15.0098 61.0063 14.4737 60.6589 14.1403C60.4376 13.9287 60.1613 13.7713 59.848 13.6925L57.8632 13.547L55.9193 13.0584L55.4136 11.8162L45.566 9.33902H3.47137C2.3761 9.33902 1.40411 10.043 1.06329 11.084L0.502625 12.7948C0.381653 13.1631 0.320007 13.5478 0.320007 13.9361V17.3911C0.320007 18.3253 0.667542 19.2252 1.29419 19.9173L4.03271 22.9409H6.18237C5.82745 21.5999 5.83557 20.1111 6.573 18.525C7.55457 16.4154 9.55646 14.8762 11.8702 14.6274C15.8732 14.1982 19.2578 17.3235 19.2578 21.2397C19.2578 21.8286 19.1731 22.3973 19.0298 22.9409H44.623C44.2687 21.5999 44.2769 20.1111 45.0142 18.525C45.9951 16.4154 47.9978 14.8762 50.3108 14.6274C54.3146 14.1982 57.6984 17.3235 57.6984 21.2397C57.6984 21.8286 57.6137 22.3973 57.4704 22.9409L58.7386 24.498H60.5511C61.0881 24.498 60.1384 23.1094 60.5511 22.8087C60.9648 22.508 62.1804 22.6253 62.3444 22.1137L61.6249 20.8759L62.9459 20.2477C63.1159 19.719 61.7578 18.4158 61.2172 18.2911Z" fill="white"/>
<path d="M12.6061 18.6223C14.0496 18.6223 15.2236 19.7962 15.2236 21.2397C15.2236 22.6832 14.0496 23.8572 12.6061 23.8572C11.1626 23.8572 9.98792 22.6832 9.98792 21.2397C9.98792 19.7962 11.1626 18.6223 12.6061 18.6223ZM12.6061 16.3672C9.9151 16.3672 7.73352 18.5487 7.73352 21.2397C7.73352 23.9307 9.9151 26.1122 12.6061 26.1122C15.2971 26.1122 17.4786 23.9307 17.4786 21.2397C17.4786 18.5487 15.2971 16.3672 12.6061 16.3672Z" fill="white"/>
<path d="M51.0466 18.6223C52.4902 18.6223 53.6641 19.7962 53.6641 21.2397C53.6641 22.6832 52.4902 23.8572 51.0466 23.8572C49.6031 23.8572 48.4292 22.6832 48.4292 21.2397C48.4292 19.7962 49.6031 18.6223 51.0466 18.6223ZM51.0466 16.3672C48.3557 16.3672 46.1741 18.5487 46.1741 21.2397C46.1741 23.9307 48.3557 26.1122 51.0466 26.1122C53.7376 26.1122 55.9193 23.9307 55.9193 21.2397C55.9193 18.5487 53.7376 16.3672 51.0466 16.3672Z" fill="white"/>
<path d="M2.89546 10.4267L2.94356 10.4608L3.02547 10.3455L2.89546 10.4267Z" fill="white"/>
<path d="M36.6452 3.40018C35.9954 2.99252 35.2432 2.77643 34.4762 2.77643H15.6847C14.9615 2.77643 14.2843 3.12842 13.8684 3.72021L12.3106 5.93671L9.44435 10.1432L10.6867 10.9897L15.2584 4.27936H25.8931L26.9565 11.2978L28.443 11.0721L27.4139 4.27936H35.218L45.3989 10.6615L46.1972 9.38803L36.6452 3.40018Z" fill="white"/>
<rect x="17.4785" y="3.99939" width="1.37266" height="6.08616" fill="white"/>
<path d="M46.5746 10.7679L45.7957 9.50366L49.7892 7.04245L51.0467 5.7337L51.1191 3.56366L54.8736 2.77649L56.1497 0.699524L58.1132 0.779724L58.0616 1.69742L60.5515 2.4306L60.1317 3.85535L57.9593 3.21539L56.9012 2.16693L55.9932 3.83051L52.535 4.43518L53.6642 6.39844L51.7766 7.5618L50.0701 8.61368L46.5746 10.7679Z" fill="white"/>
</g>
</svg>
